# xmcd
#
# Track frame offsets: 
#        150
#        4337
#        23370
#        39022
#        53115
#        67027
#        80924
#        96016
#        111071
#        124995
#        140727
#
# Disc length: 2044 seconds
#
# Revision: 0
# Processed by: cddbd v1.5.2PL0 Copyright (c) Steve Scherf et al.
# Submitted via: ExactAudioCopy v0.99pb5
#
DISCID=8e07fa0b
DTITLE=La Cumbia - No es lo mismo, Ni es igual
DYEAR=2009
DGENRE=Latin
TTITLE0=Agita la gente
TTITLE1=Esta noche esta rebuena
TTITLE2=Aun me recuerdas
TTITLE3=Halle una flor
TTITLE4=Que calor
TTITLE5=Ya basta
TTITLE6=Fuiste
TTITLE7=Mi mayor sacrificio
TTITLE8=Si la ves
TTITLE9=El mejor
TTITLE10=Aun me recuerdas (Balada)
EXTD=
EXTT0=
EXTT1=
EXTT2=
EXTT3=
EXTT4=
EXTT5=
EXTT6=
EXTT7=
EXTT8=
EXTT9=
EXTT10=
PLAYORDER=
